HIERARCHY
ROOT newVegas:Hips
{
	OFFSET 0.000000 96.479958 0.000000
	CHANNELS 6 Xposition Yposition Zposition Xrotation Yrotation Zrotation
	JOINT newVegas:Pelvis
	{
		OFFSET 0.000000 0.000000 0.000000
		CHANNELS 3 Xrotation Yrotation Zrotation
		JOINT newVegas:LeftUpLeg
		{
			OFFSET 18.735201 -5.666702 -4.541200
			CHANNELS 3 Xrotation Yrotation Zrotation
			JOINT newVegas:LeftLeg
			{
				OFFSET -0.021200 -31.938179 0.493100
				CHANNELS 3 Xrotation Yrotation Zrotation
				JOINT newVegas:LeftFoot
				{
					OFFSET 0.021200 -31.938179 -4.336299
					CHANNELS 3 Xrotation Yrotation Zrotation
					JOINT newVegas:LeftToeBase
					{
						OFFSET 0.943001 -26.722000 15.023500
						CHANNELS 3 Xrotation Yrotation Zrotation
						End Site
						{
							OFFSET 0.000000 30.670183 0.000000
						}
					}
				}
				JOINT newVegas:Left_PantLeg
				{
					OFFSET 0.663870 -9.044666 -1.108900
					CHANNELS 3 Xrotation Yrotation Zrotation
					End Site
					{
						OFFSET 1.415995 20.635357 0.000000
					}
				}
			}
		}
		JOINT newVegas:RightUpLeg
		{
			OFFSET -18.735201 -5.666702 -4.541200
			CHANNELS 3 Xrotation Yrotation Zrotation
			JOINT newVegas:RightLeg
			{
				OFFSET 0.018946 -31.938133 0.493100
				CHANNELS 3 Xrotation Yrotation Zrotation
				JOINT newVegas:RightFoot
				{
					OFFSET -0.018946 -31.938126 -4.336299
					CHANNELS 3 Xrotation Yrotation Zrotation
					JOINT newVegas:RightToeBase
					{
						OFFSET -0.943001 -26.722004 15.023500
						CHANNELS 3 Xrotation Yrotation Zrotation
						End Site
						{
							OFFSET 0.000000 30.670187 0.000000
						}
					}
				}
				JOINT newVegas:Right_PantLeg
				{
					OFFSET -0.661674 -9.044716 -1.108900
					CHANNELS 3 Xrotation Yrotation Zrotation
					End Site
					{
						OFFSET -1.415958 20.635269 0.000000
					}
				}
			}
		}
	}
	JOINT newVegas:Spine
	{
		OFFSET 0.000000 10.199997 -0.299500
		CHANNELS 3 Xrotation Yrotation Zrotation
		JOINT newVegas:Spine1
		{
			OFFSET 0.000000 11.900002 -1.516600
			CHANNELS 3 Xrotation Yrotation Zrotation
			JOINT newVegas:Spine2
			{
				OFFSET 0.000000 13.600006 -2.842500
				CHANNELS 3 Xrotation Yrotation Zrotation
				JOINT newVegas:Neck
				{
					OFFSET 0.000000 9.624100 -2.890100
					CHANNELS 3 Xrotation Yrotation Zrotation
					JOINT newVegas:Head
					{
						OFFSET 0.000000 14.068802 -1.351900
						CHANNELS 3 Xrotation Yrotation Zrotation
						JOINT newVegas:Hair_Back
						{
							OFFSET 0.000000 3.231903 -17.524799
							CHANNELS 3 Xrotation Yrotation Zrotation
							End Site
							{
								OFFSET 0.000000 19.849884 0.000000
							}
						}
						JOINT newVegas:Hair_Front
						{
							OFFSET 0.000000 31.260406 4.573800
							CHANNELS 3 Xrotation Yrotation Zrotation
							JOINT newVegas:Hair_Front1
							{
								OFFSET 0.000000 2.284103 11.993300
								CHANNELS 3 Xrotation Yrotation Zrotation
								JOINT newVegas:Hair_Front2
								{
									OFFSET 0.000000 2.284103 11.993300
									CHANNELS 3 Xrotation Yrotation Zrotation
									End Site
									{
										OFFSET 0.000000 12.208862 0.000000
									}
								}
							}
						}
						JOINT newVegas:Jowel
						{
							OFFSET 0.000000 -7.458206 6.864100
							CHANNELS 3 Xrotation Yrotation Zrotation
							End Site
							{
								OFFSET 0.000000 19.849884 0.000000
							}
						}
					}
				}
				JOINT newVegas:LeftShoulder
				{
					OFFSET 15.263000 10.923401 -0.547700
					CHANNELS 3 Xrotation Yrotation Zrotation
					JOINT newVegas:LeftArm
					{
						OFFSET 25.438599 -2.830597 -13.032500
						CHANNELS 3 Xrotation Yrotation Zrotation
						JOINT newVegas:LeftForeArm
						{
							OFFSET 29.960503 0.000000 0.000000
							CHANNELS 3 Xrotation Yrotation Zrotation
							JOINT newVegas:LeftHand
							{
								OFFSET 27.849251 0.000000 0.000000
								CHANNELS 3 Xrotation Yrotation Zrotation
								JOINT newVegas:LeftHandThumb1
								{
									OFFSET 4.487587 -3.305161 6.305391
									CHANNELS 3 Xrotation Yrotation Zrotation
									JOINT newVegas:LeftHandThumb2
									{
										OFFSET 5.480453 -3.164139 3.164143
										CHANNELS 3 Xrotation Yrotation Zrotation
										JOINT newVegas:LeftHandThumb3
										{
											OFFSET 5.159721 -2.978973 2.978967
											CHANNELS 3 Xrotation Yrotation Zrotation
											End Site
											{
												OFFSET 2.494507 5.926697 1.738678
											}
										}
									}
								}
								JOINT newVegas:LeftHandIndex1
								{
									OFFSET 18.578728 -0.527832 5.208049
									CHANNELS 3 Xrotation Yrotation Zrotation
									JOINT newVegas:LeftHandIndex2
									{
										OFFSET 3.192009 0.000000 0.000000
										CHANNELS 3 Xrotation Yrotation Zrotation
										JOINT newVegas:LeftHandIndex3
										{
											OFFSET 3.835129 0.000000 0.000000
											CHANNELS 3 Xrotation Yrotation Zrotation
											End Site
											{
												OFFSET -0.034599 3.816971 0.371180
											}
										}
									}
								}
								JOINT newVegas:LeftHandMiddle1
								{
									OFFSET 18.476105 0.000000 0.000000
									CHANNELS 3 Xrotation Yrotation Zrotation
									JOINT newVegas:LeftHandMiddle2
									{
										OFFSET 3.324875 0.000000 0.000000
										CHANNELS 3 Xrotation Yrotation Zrotation
										JOINT newVegas:LeftHandMiddle3
										{
											OFFSET 4.596550 0.000000 0.000000
											CHANNELS 3 Xrotation Yrotation Zrotation
											End Site
											{
												OFFSET 0.057701 4.578827 0.399218
											}
										}
									}
								}
								JOINT newVegas:LeftHandRing1
								{
									OFFSET 17.732719 0.121887 -4.201567
									CHANNELS 3 Xrotation Yrotation Zrotation
									JOINT newVegas:LeftHandRing2
									{
										OFFSET 2.733170 0.000000 0.000000
										CHANNELS 3 Xrotation Yrotation Zrotation
										JOINT newVegas:LeftHandRing3
										{
											OFFSET 3.178268 0.000000 0.000000
											CHANNELS 3 Xrotation Yrotation Zrotation
											End Site
											{
												OFFSET 0.119102 3.170624 0.185394
											}
										}
									}
								}
								JOINT newVegas:LeftHandPinky1
								{
									OFFSET 15.989624 -0.606689 -7.535461
									CHANNELS 3 Xrotation Yrotation Zrotation
									JOINT newVegas:LeftHandPinky2
									{
										OFFSET 2.538986 0.000000 0.000000
										CHANNELS 3 Xrotation Yrotation Zrotation
										JOINT newVegas:LeftHandPinky3
										{
											OFFSET 2.593102 0.000000 0.000000
											CHANNELS 3 Xrotation Yrotation Zrotation
											End Site
											{
												OFFSET -0.150902 2.584198 0.152708
											}
										}
									}
								}
							}
							JOINT newVegas:Left_Sleeve
							{
								OFFSET 0.267448 -0.649796 0.577675
								CHANNELS 3 Xrotation Yrotation Zrotation
								End Site
								{
									OFFSET 0.000000 15.991241 0.000000
								}
							}
							JOINT newVegas:Left_CapeC
							{
								OFFSET 15.715958 -8.608795 -6.935905
								CHANNELS 3 Xrotation Yrotation Zrotation
								JOINT newVegas:Left_CapeC1
								{
									OFFSET 0.000000 -8.688499 0.000000
									CHANNELS 3 Xrotation Yrotation Zrotation
									End Site
									{
										OFFSET 0.000000 8.688499 0.000000
									}
								}
							}
						}
						JOINT newVegas:Left_CapeB
						{
							OFFSET 26.118385 -8.608795 -7.079235
							CHANNELS 3 Xrotation Yrotation Zrotation
							JOINT newVegas:Left_CapeB1
							{
								OFFSET 0.000000 -8.688499 0.000000
								CHANNELS 3 Xrotation Yrotation Zrotation
								End Site
								{
									OFFSET 0.000000 8.688499 0.000000
								}
							}
						}
						JOINT newVegas:Left_CapeA
						{
							OFFSET 5.115639 -8.608795 -10.395809
							CHANNELS 3 Xrotation Yrotation Zrotation
							JOINT newVegas:Left_CapeA1
							{
								OFFSET 0.000000 -8.688499 0.000000
								CHANNELS 3 Xrotation Yrotation Zrotation
								End Site
								{
									OFFSET 0.000000 8.688499 0.000000
								}
							}
						}
					}
				}
				JOINT newVegas:RightShoulder
				{
					OFFSET -15.263000 10.923401 -0.547700
					CHANNELS 3 Xrotation Yrotation Zrotation
					JOINT newVegas:RightArm
					{
						OFFSET -25.438599 -2.830597 -13.032500
						CHANNELS 3 Xrotation Yrotation Zrotation
						JOINT newVegas:RightForeArm
						{
							OFFSET -29.960503 0.000000 0.000000
							CHANNELS 3 Xrotation Yrotation Zrotation
							JOINT newVegas:RightHand
							{
								OFFSET -27.849251 0.000000 0.000000
								CHANNELS 3 Xrotation Yrotation Zrotation
								JOINT newVegas:RightHandThumb1
								{
									OFFSET -4.487587 -3.305161 6.305391
									CHANNELS 3 Xrotation Yrotation Zrotation
									JOINT newVegas:RightHandThumb2
									{
										OFFSET -5.480453 -3.164139 3.164143
										CHANNELS 3 Xrotation Yrotation Zrotation
										JOINT newVegas:RightHandThumb3
										{
											OFFSET -5.159721 -2.978973 2.978967
											CHANNELS 3 Xrotation Yrotation Zrotation
											End Site
											{
												OFFSET -2.494507 5.926697 1.738678
											}
										}
									}
								}
								JOINT newVegas:RightHandIndex1
								{
									OFFSET -18.578728 -0.527832 5.208049
									CHANNELS 3 Xrotation Yrotation Zrotation
									JOINT newVegas:RightHandIndex2
									{
										OFFSET -3.192009 0.000000 0.000000
										CHANNELS 3 Xrotation Yrotation Zrotation
										JOINT newVegas:RightHandIndex3
										{
											OFFSET -3.835129 0.000000 0.000000
											CHANNELS 3 Xrotation Yrotation Zrotation
											End Site
											{
												OFFSET 0.034599 3.816971 0.371180
											}
										}
									}
								}
								JOINT newVegas:RightHandMiddle1
								{
									OFFSET -18.476105 0.000000 0.000000
									CHANNELS 3 Xrotation Yrotation Zrotation
									JOINT newVegas:RightHandMiddle2
									{
										OFFSET -3.324875 0.000000 0.000000
										CHANNELS 3 Xrotation Yrotation Zrotation
										JOINT newVegas:RightHandMiddle3
										{
											OFFSET -4.596550 0.000000 0.000000
											CHANNELS 3 Xrotation Yrotation Zrotation
											End Site
											{
												OFFSET -0.057701 4.578827 0.399218
											}
										}
									}
								}
								JOINT newVegas:RightHandRing1
								{
									OFFSET -17.732719 0.121887 -4.201567
									CHANNELS 3 Xrotation Yrotation Zrotation
									JOINT newVegas:RightHandRing2
									{
										OFFSET -2.733170 0.000000 0.000000
										CHANNELS 3 Xrotation Yrotation Zrotation
										JOINT newVegas:RightHandRing3
										{
											OFFSET -3.178268 0.000000 0.000000
											CHANNELS 3 Xrotation Yrotation Zrotation
											End Site
											{
												OFFSET -0.119102 3.170624 0.185394
											}
										}
									}
								}
								JOINT newVegas:RightHandPinky1
								{
									OFFSET -15.989624 -0.606689 -7.535461
									CHANNELS 3 Xrotation Yrotation Zrotation
									JOINT newVegas:RightHandPinky2
									{
										OFFSET -2.538986 0.000000 0.000000
										CHANNELS 3 Xrotation Yrotation Zrotation
										JOINT newVegas:RightHandPinky3
										{
											OFFSET -2.593102 0.000000 0.000000
											CHANNELS 3 Xrotation Yrotation Zrotation
											End Site
											{
												OFFSET 0.150902 2.584198 0.152708
											}
										}
									}
								}
							}
							JOINT newVegas:Right_CapeC
							{
								OFFSET -15.715958 -8.608795 -6.935905
								CHANNELS 3 Xrotation Yrotation Zrotation
								JOINT newVegas:Right_CapeC1
								{
									OFFSET 0.000000 -8.688499 0.000000
									CHANNELS 3 Xrotation Yrotation Zrotation
									End Site
									{
										OFFSET 0.000000 8.688499 0.000000
									}
								}
							}
							JOINT newVegas:Right_Sleeve
							{
								OFFSET -0.267448 -0.649994 0.577675
								CHANNELS 3 Xrotation Yrotation Zrotation
								End Site
								{
									OFFSET 0.000000 15.991302 0.000000
								}
							}
						}
						JOINT newVegas:Right_CapeA
						{
							OFFSET -5.115540 -8.608795 -10.395824
							CHANNELS 3 Xrotation Yrotation Zrotation
							JOINT newVegas:Right_CapeA1
							{
								OFFSET 0.000000 -8.688499 0.000000
								CHANNELS 3 Xrotation Yrotation Zrotation
								End Site
								{
									OFFSET 0.000000 8.688499 0.000000
								}
							}
						}
						JOINT newVegas:Right_CapeB
						{
							OFFSET -26.118187 -8.608795 -7.079266
							CHANNELS 3 Xrotation Yrotation Zrotation
							JOINT newVegas:Right_CapeB1
							{
								OFFSET 0.000000 -8.688499 0.000000
								CHANNELS 3 Xrotation Yrotation Zrotation
								End Site
								{
									OFFSET 0.000000 8.688499 0.000000
								}
							}
						}
					}
				}
				JOINT newVegas:Left_Collar
				{
					OFFSET 18.625099 8.655502 8.828100
					CHANNELS 3 Xrotation Yrotation Zrotation
					JOINT newVegas:Left_Collar1
					{
						OFFSET 14.783401 10.540405 -1.259500
						CHANNELS 3 Xrotation Yrotation Zrotation
						End Site
						{
							OFFSET 0.000000 18.199875 0.000000
						}
					}
				}
				JOINT newVegas:Collar_Back
				{
					OFFSET 0.000000 15.630707 -20.132601
					CHANNELS 3 Xrotation Yrotation Zrotation
					End Site
					{
						OFFSET 0.000000 22.523010 0.000000
					}
				}
				JOINT newVegas:Left_Peck
				{
					OFFSET 17.239599 -5.132599 25.482599
					CHANNELS 3 Xrotation Yrotation Zrotation
					End Site
					{
						OFFSET 0.000000 22.523010 0.000000
					}
				}
				JOINT newVegas:Right_Peck
				{
					OFFSET -17.239599 -5.132202 25.482599
					CHANNELS 3 Xrotation Yrotation Zrotation
					End Site
					{
						OFFSET 0.000000 22.523010 0.000000
					}
				}
				JOINT newVegas:Right_Collar
				{
					OFFSET -18.625099 8.655792 8.828100
					CHANNELS 3 Xrotation Yrotation Zrotation
					JOINT newVegas:Right_Collar1
					{
						OFFSET -14.783401 10.539993 -1.259500
						CHANNELS 3 Xrotation Yrotation Zrotation
						End Site
						{
							OFFSET 0.000000 18.199631 0.000000
						}
					}
				}
			}
		}
		JOINT newVegas:Belly
		{
			OFFSET 0.000000 -6.540398 9.014299
			CHANNELS 3 Xrotation Yrotation Zrotation
			End Site
			{
				OFFSET 0.000000 11.566666 0.000000
			}
		}
	}
	JOINT newVegas:ElvisFacialAnim_Joint
	{
		OFFSET 1.000000 -95.330101 -8.825800
		CHANNELS 3 Xrotation Yrotation Zrotation
		End Site
		{
			OFFSET 0.000000 35.315800 0.000000
		}
	}
}
MOTION
Frames: 4
Frame Time: 0.033333
-2.951906 77.429276 1.588125 13.217514 -45.839356 9.017480 -0.000000 0.000000 0.000000 -73.243226 15.002434 48.927565 52.649847 -16.453658 4.652898 5.962236 0.377857 -16.562075 -0.000000 -0.000001 -0.000000 0.000000 -0.000000 0.000000 -30.507422 -17.300589 -44.093820 42.361223 2.710176 -4.944077 -13.494237 -7.755853 39.630294 0.000000 0.000000 0.000000 -0.000001 0.000000 0.000001 7.424889 3.354687 -3.370303 1.209173 1.420695 2.325052 0.209262 1.298845 1.049732 -0.390599 1.953720 -0.338251 -0.390588 1.953720 -0.338254 0.000000 0.000000 -0.000001 -0.390592 1.953721 -0.338249 -0.390597 1.953748 -0.338254 -0.000000 -0.000001 0.000000 0.000000 0.000000 -0.000001 -2.416905 -9.914488 -4.105215 -4.668973 -14.995288 -46.826933 -96.668077 -58.172830 -94.771730 0.027013 -0.377054 -3.261909 4.766500 -0.870682 -14.442462 15.732308 12.674840 8.828574 -0.000003 0.000000 -0.000001 -3.610945 -7.817617 -81.262695 0.005165 -4.388526 -67.459081 0.000000 -0.000000 -0.000004 -5.483691 2.419522 -86.651017 -0.073531 -4.898516 -76.605974 -0.000001 0.000001 0.000002 -4.480799 3.914162 -90.412505 -1.097247 -0.675696 -62.310730 -0.000000 -0.000004 0.000001 -8.868644 8.263665 -85.753865 -0.047904 -0.066893 -74.105674 -0.000000 -0.000005 -0.000002 -0.000000 0.000000 -0.000001 -0.000000 0.000000 -0.000001 -0.000001 0.000000 -0.000001 -0.000001 -0.000003 0.000002 -0.000000 -0.000003 -0.000001 -0.000001 -0.000003 0.000002 -0.000000 -0.000003 0.000002 -7.387813 -19.317455 2.804092 3.089080 2.300729 51.805110 -16.213853 73.879397 16.738415 -2.716590 27.655241 10.524486 24.918350 -21.323349 30.343044 9.041931 8.262096 -18.001799 0.000001 -0.000004 0.000002 -0.063668 -3.031246 61.424410 0.006466 4.395141 66.609207 -0.000001 -0.000001 -0.000000 -1.212057 -0.129601 68.274509 -0.077301 4.902843 84.501905 -0.000000 -0.000001 0.000002 0.882045 -4.619346 79.192867 -0.717777 1.136495 73.255766 -0.000002 -0.000001 0.000001 -3.970222 0.101056 86.765478 -0.029806 0.060158 54.415144 0.000002 0.000003 0.000001 0.000001 0.000000 0.000003 0.000001 -0.000000 0.000003 0.000001 0.000001 0.000002 -0.000001 0.000000 -0.000002 -0.000001 0.000000 -0.000002 -0.000001 0.000000 -0.000002 -0.000001 -0.000000 -0.000000 0.000001 0.000001 -0.000001 0.000001 0.000001 -0.000001 0.000001 0.000001 -0.000001 0.000001 0.000001 -0.000001 0.000001 0.000001 -0.000001 0.000001 0.000001 -0.000001 0.000001 0.000001 -0.000001 -0.000000 0.000000 0.000000 -0.000000 0.000000 0.000000 
-3.179565 78.241302 2.115849 13.300652 -44.670004 9.289033 -0.000000 -0.000001 0.000000 -71.139104 15.757142 46.898575 49.958797 -15.540941 4.200027 6.499375 0.160208 -16.742542 -0.000000 0.000000 -0.000000 -0.000002 0.000001 0.000001 -29.246638 -16.548408 -43.695507 41.114361 1.720779 -4.465333 -11.847140 -6.533368 37.993013 -0.000000 -0.000001 0.000000 0.000001 0.000002 0.000000 7.659463 2.730154 -2.566121 0.917731 1.171576 1.905566 0.065238 1.068499 0.817836 -0.558686 1.778307 -0.325863 -0.558670 1.778294 -0.325861 -0.000000 0.000003 -0.000001 -0.558674 1.778305 -0.325865 -0.558687 1.778311 -0.325863 0.000000 -0.000001 -0.000000 -0.000000 0.000003 -0.000000 -2.232931 -8.014469 -6.883109 -2.472299 -13.487726 -46.102544 -93.533649 -60.836673 -86.758989 -0.605812 -0.027709 -0.839709 0.732626 -0.274801 -13.665352 17.332752 11.207009 11.053857 0.000002 0.000002 0.000001 -1.009935 -6.347955 -70.119624 -0.003323 -4.380660 -58.722661 0.000000 0.000000 -0.000000 -4.183438 1.970221 -75.799110 -0.068242 -4.886483 -67.956960 -0.000001 0.000000 -0.000003 -4.302373 2.643731 -80.611252 -0.998838 -0.833376 -57.596827 -0.000000 0.000001 0.000000 -8.339889 6.026958 -78.547872 -0.045217 -0.061863 -68.633839 -0.000001 -0.000002 -0.000001 -0.000001 0.000001 -0.000001 -0.000001 0.000001 -0.000001 -0.000001 0.000000 -0.000001 0.000001 -0.000001 0.000002 0.000001 -0.000001 -0.000000 0.000001 -0.000001 0.000002 -0.000000 -0.000000 0.000003 -5.385742 -15.285666 5.557203 2.187454 4.353603 48.780029 -5.801420 73.814148 6.279268 -1.446863 25.790707 8.837309 24.918344 -21.323342 30.343047 9.041934 8.262091 -18.001800 -0.000000 0.000002 -0.000000 -0.063652 -3.026918 61.425196 0.006467 4.395147 66.609200 -0.000002 -0.000001 -0.000001 -1.212062 -0.129602 68.274509 -0.077300 4.902845 84.501905 0.000003 0.000001 -0.000001 0.882040 -4.619344 79.192867 -0.717779 1.136495 73.255766 -0.000007 -0.000001 0.000000 -3.970218 0.101055 86.765478 -0.029810 0.060155 54.415144 -0.000001 0.000002 0.000000 0.000001 0.000000 -0.000003 -0.000000 0.000000 -0.000002 0.000001 0.000000 -0.000003 0.000001 -0.000001 0.000003 0.000002 0.000000 0.000002 0.000001 -0.000001 0.000003 0.000002 0.000000 0.000003 -0.000001 0.000003 -0.000001 -0.000001 0.000003 -0.000001 -0.000001 0.000003 -0.000001 -0.000001 0.000003 -0.000001 -0.000001 0.000003 -0.000001 -0.000001 0.000003 -0.000001 -0.000001 0.000003 -0.000001 0.000001 0.000001 -0.000001 -0.000000 -0.000001 0.000000 
-3.333220 79.169815 2.777433 13.190744 -43.257156 9.308887 0.000000 -0.000001 0.000000 -68.674772 16.287814 44.448607 47.043235 -14.478724 3.758043 7.122817 -0.053590 -16.840144 -0.000000 0.000000 0.000000 -0.000000 -0.000000 0.000003 -27.199534 -16.309933 -43.080752 39.445271 0.762217 -3.893411 -11.035770 -5.697002 36.112668 -0.000000 0.000002 -0.000001 0.000002 0.000002 -0.000001 8.130725 2.429973 -1.277064 0.599182 0.978303 1.506444 -0.084208 0.893886 0.635227 -0.815672 1.556521 -0.316299 -0.815680 1.556505 -0.316300 0.000000 -0.000001 0.000001 -0.815678 1.556537 -0.316300 -0.815666 1.556507 -0.316299 -0.000000 -0.000002 0.000001 0.000000 -0.000001 0.000001 -2.087331 -6.700801 -10.682692 0.205043 -11.752210 -45.862917 -90.510532 -62.553768 -81.784863 -1.009786 -0.144578 0.594820 -3.851109 0.241759 -12.921830 19.152023 9.736273 13.585706 -0.000002 -0.000002 -0.000008 1.083947 -4.229222 -57.823439 -0.002988 -4.386026 -49.031490 -0.000000 -0.000000 -0.000001 -2.800542 1.865090 -63.723117 -0.055096 -4.886052 -58.362942 -0.000000 -0.000000 0.000001 -3.803881 1.422940 -69.735801 -0.864352 -0.988172 -52.367747 -0.000000 -0.000004 -0.000001 -7.318051 3.846079 -70.558511 -0.036245 -0.060472 -62.565332 0.000001 -0.000003 0.000000 0.000001 -0.000000 0.000002 0.000001 -0.000000 0.000002 0.000000 -0.000000 0.000002 -0.000002 -0.000001 0.000002 -0.000002 -0.000002 0.000001 -0.000002 -0.000001 0.000002 -0.000001 -0.000000 0.000002 -3.539033 -10.697698 8.223242 1.553511 6.396727 44.552928 2.889088 73.966031 -2.684421 -0.362024 23.476907 6.993239 24.918349 -21.323343 30.343040 9.041936 8.262092 -18.001800 0.000003 0.000002 -0.000002 -0.062550 -3.020816 61.426261 0.006464 4.395142 66.609200 -0.000005 -0.000002 -0.000000 -1.212057 -0.129603 68.274503 -0.077303 4.902843 84.501905 -0.000001 0.000000 0.000000 0.882044 -4.619347 79.192861 -0.717775 1.136497 73.255766 -0.000004 0.000001 0.000000 -3.970229 0.101062 86.765464 -0.029806 0.060161 54.415140 -0.000000 0.000003 -0.000001 -0.000002 0.000003 0.000002 -0.000002 0.000001 -0.000001 -0.000002 0.000003 0.000003 -0.000001 -0.000001 -0.000003 -0.000001 -0.000001 -0.000002 -0.000001 -0.000001 -0.000003 -0.000000 -0.000002 -0.000000 0.000001 0.000000 -0.000001 0.000001 0.000000 -0.000001 0.000001 0.000000 -0.000001 0.000001 0.000000 -0.000001 0.000001 0.000000 -0.000001 0.000001 0.000000 -0.000001 0.000001 0.000000 -0.000001 -0.000001 0.000004 -0.000000 0.000000 -0.000001 0.000000 
-3.404159 80.165848 3.740746 12.994622 -41.598468 9.489003 -0.000000 -0.000003 0.000001 -66.211437 17.370865 41.660029 44.127458 -13.829411 3.546485 7.599604 -0.159176 -16.642879 0.000000 0.000000 -0.000000 -0.000001 0.000001 -0.000001 -24.766384 -16.742247 -43.064698 36.768052 -0.154730 -2.915930 -9.990015 -4.938708 33.968652 0.000000 -0.000000 -0.000000 0.000001 -0.000000 0.000000 8.545195 2.727055 -0.015295 0.206964 0.938918 1.242483 -0.299346 0.869257 0.599725 -1.102802 1.284939 -0.311554 -1.102799 1.284937 -0.311547 -0.000000 -0.000002 0.000000 -1.102737 1.284928 -0.311549 -1.102806 1.284962 -0.311555 0.000000 0.000000 -0.000000 -0.000000 -0.000002 0.000000 -1.907810 -5.628259 -14.447981 0.684998 -8.540924 -46.303755 -85.915727 -63.262674 -78.003458 -1.256389 -0.445754 1.371036 -8.793442 0.621220 -12.307561 21.109729 8.389167 16.324166 -0.000003 -0.000002 0.000002 2.270037 -1.703718 -44.938154 -0.002462 -4.394503 -38.830612 -0.000001 -0.000001 0.000005 -1.538671 2.196793 -50.991187 -0.042788 -4.885983 -48.263913 -0.000001 0.000000 -0.000001 -2.995382 0.458024 -58.272968 -0.700154 -1.118658 -46.861600 -0.000000 -0.000001 0.000001 -5.808385 2.005996 -62.122736 -0.027447 -0.058776 -56.176373 0.000000 -0.000007 -0.000001 0.000000 0.000002 -0.000001 0.000000 0.000002 -0.000001 -0.000000 0.000001 -0.000001 0.000001 -0.000001 0.000002 0.000001 -0.000002 0.000002 0.000001 -0.000001 0.000002 0.000000 -0.000001 0.000002 -2.119515 -5.880542 10.186807 1.684384 8.040071 39.347965 9.070000 74.504434 -9.413853 0.501063 20.621577 4.808876 24.918345 -21.323350 30.343040 9.041930 8.262092 -18.001795 -0.000000 -0.000000 -0.000003 -0.060297 -3.016750 61.426842 0.006465 4.395144 66.609207 -0.000003 0.000000 -0.000001 -1.212052 -0.129603 68.274503 -0.077300 4.902838 84.501905 0.000003 -0.000000 0.000003 0.882046 -4.619346 79.192861 -0.717775 1.136494 73.255766 -0.000003 0.000001 -0.000002 -3.970224 0.101054 86.765471 -0.029811 0.060161 54.415147 0.000002 -0.000002 -0.000002 0.000002 0.000003 -0.000003 0.000002 0.000001 -0.000001 0.000002 0.000003 -0.000003 -0.000001 -0.000002 -0.000003 -0.000000 -0.000002 -0.000002 -0.000001 -0.000002 -0.000003 -0.000000 -0.000002 -0.000000 -0.000001 -0.000001 -0.000000 -0.000001 -0.000001 -0.000000 -0.000001 -0.000001 -0.000000 -0.000001 -0.000001 -0.000000 -0.000001 -0.000001 -0.000000 -0.000001 -0.000001 -0.000000 -0.000001 -0.000001 -0.000000 0.000002 0.000001 0.000000 -0.000000 -0.000003 0.000001 
